# xmcd
#
# Track frame offsets: 
#        150
#        16346
#        35962
#        55840
#        75076
#        94660
#        118894
#        142094
#        156333
#        175133
#        199598
#        213661
#        228464
#        252631
#        271067
#        288795
#        303322
#
# Disc length: 4238 seconds
#
# Revision: 0
# Processed by: cddbd v1.5.2PL0 Copyright (c) Steve Scherf et al.
# Submitted via: ExactAudioCopy v0.95b3
#
DISCID=f0108c11
DTITLE=Josh Gracin - Redemption
DYEAR=2012
DGENRE=Country
TTITLE0=Different Kind Of Crazy
TTITLE1=Over Me
TTITLE2=Get Back To Us
TTITLE3=Enough
TTITLE4=I Want To Make You Cry
TTITLE5=Let You Go
TTITLE6=Edge Of Desire
TTITLE7=Lie To Me
TTITLE8=Love You Right
TTITLE9=Only When It Rains
TTITLE10=My Life
TTITLE11=Cover Girl
TTITLE12=Catastrophe
TTITLE13=Can't Say Goodby
TTITLE14=I Still Love You
TTITLE15=Long Way To Go
TTITLE16=Long Way To Go
EXTD=
EXTT0=
EXTT1=
EXTT2=
EXTT3=
EXTT4=
EXTT5=
EXTT6=
EXTT7=
EXTT8=
EXTT9=
EXTT10=
EXTT11=
EXTT12=
EXTT13=
EXTT14=
EXTT15=
EXTT16=
PLAYORDER=
